<svg width="955" height="315" viewBox="0 0 955 315" fill="none" xmlns="http://www.w3.org/2000/svg">
<mask id="mask0_23_88" style="mask-type:luminance" maskUnits="userSpaceOnUse" x="0" y="0" width="955" height="315">
<path d="M954.4 0H0V314.4H954.4V0Z" fill="white"/>
</mask>
<g mask="url(#mask0_23_88)">
<mask id="mask1_23_88" style="mask-type:alpha" maskUnits="userSpaceOnUse" x="0" y="0" width="273" height="315">
<path d="M271.4 78.1L137 0.5L136.1 0L135.2 0.5L1.6 77.7L0.9 78.1L0 78.6V235.8L0.9 236.3L135.3 313.9L136.2 314.4L137.1 313.9L269.7 237.4L271.5 236.4L272.4 235.9V78.6L271.4 78.1ZM122.7 20.1L89.8 77H24.1L122.7 20.1ZM84.4 86.4L69 113.1L22.8 86.4H84.4ZM72.4 125.8L126.7 157.2L72.4 188.6L54.3 157.2L72.4 125.8ZM64.4 121.2L49 147.9L18.1 94.5L64.4 121.2ZM10.7 100.3L43.6 157.2L10.7 214.1V100.3ZM48.9 166.6L64.3 193.3L18.1 220L48.9 166.6ZM69 201.3L84.4 228H22.8L69 201.3ZM24.1 237.4H89.8L122.7 294.3L24.1 237.4ZM131.5 290.8L100.7 237.4H131.5V290.8ZM131.5 228H95.2L77.1 196.6L131.4 165.2V228H131.5ZM131.5 149.1L77.2 117.7L95.3 86.3H131.5V149.1ZM131.5 77H100.7L131.5 23.6V77ZM207.9 121.2L254.1 94.5L223.3 147.9L207.9 121.2ZM217.9 157.2L199.8 188.6L145.5 157.2L199.8 125.8L217.9 157.2ZM203.2 113.1L187.8 86.4H249.4L203.2 113.1ZM248.1 77H182.4L149.6 20.1L248.1 77ZM140.8 23.6L171.6 77H140.8V23.6ZM140.8 86.4H177L195.1 117.8L140.8 149.2V86.4ZM140.8 165.3L195.1 196.7L177 228H140.8V165.3ZM140.8 237.4H171.6L140.8 290.8V237.4ZM149.6 294.3L182.4 237.4H248.1L149.6 294.3ZM187.8 228L203.2 201.3L249.4 228H187.8ZM207.9 193.2L223.3 166.5L254.1 219.9L207.9 193.2ZM261.6 214.1L228.7 157.2L261.6 100.3V214.1Z" fill="black"/>
</mask>
<g mask="url(#mask1_23_88)">
<g filter="url(#filter0_f_23_88)">
<path d="M87.2 2H-3.59998V316H87.2V2Z" fill="#2D2926"/>
</g>
<g filter="url(#filter1_f_23_88)">
<path d="M187.2 0H87.2V318H187.2V0Z" fill="#FFCD00"/>
</g>
<g filter="url(#filter2_f_23_88)">
<path d="M278 2H187.2V316H278V2Z" fill="#C8102E"/>
</g>
</g>
<path d="M290.115 54.3133H315.017C325.336 54.3133 332.693 55.8432 337.087 58.9031C341.482 61.963 343.679 66.3576 343.679 72.0867C343.679 75.2117 343.11 77.8647 341.97 80.0457C340.864 82.2267 339.448 83.952 337.722 85.2215C336.03 86.491 334.288 87.3537 332.498 87.8094V88.2977C334.451 88.7859 336.388 89.5998 338.308 90.7391C340.261 91.8458 341.873 93.5223 343.142 95.7684C344.444 97.9819 345.095 100.993 345.095 104.802C345.095 109.131 343.989 112.858 341.775 115.983C339.594 119.108 336.469 121.517 332.4 123.21C328.331 124.87 323.497 125.7 317.898 125.7H290.115V54.3133ZM309.402 81.7059H315.212C318.403 81.7059 320.649 81.0548 321.951 79.7527C323.253 78.4181 323.904 76.8068 323.904 74.9188C323.904 72.9656 323.155 71.4845 321.658 70.4754C320.193 69.4337 317.914 68.9129 314.822 68.9129H309.402V81.7059ZM309.402 95.8172V110.807H316.189C319.542 110.807 321.886 110.091 323.22 108.659C324.555 107.194 325.222 105.371 325.222 103.19C325.222 101.921 324.929 100.733 324.343 99.6258C323.79 98.4865 322.83 97.575 321.462 96.8914C320.095 96.1753 318.207 95.8172 315.798 95.8172H309.402ZM381.277 69.4012C386.648 69.4012 391.287 70.3452 395.193 72.2332C399.099 74.0887 402.11 76.8882 404.226 80.6317C406.342 84.3751 407.4 89.0626 407.4 94.6942V103.19H373.269C373.432 106.087 374.506 108.464 376.492 110.319C378.51 112.175 381.472 113.102 385.379 113.102C388.829 113.102 391.987 112.761 394.851 112.077C397.748 111.393 400.727 110.335 403.787 108.903V122.624C401.117 124.024 398.204 125.049 395.046 125.7C391.889 126.351 387.901 126.677 383.084 126.677C377.517 126.677 372.537 125.684 368.142 123.698C363.748 121.712 360.281 118.636 357.742 114.47C355.235 110.303 353.982 104.948 353.982 98.4051C353.982 91.7645 355.121 86.312 357.4 82.0477C359.679 77.7508 362.869 74.577 366.97 72.5262C371.072 70.4429 375.841 69.4012 381.277 69.4012ZM381.961 82.3895C379.714 82.3895 377.826 83.1056 376.296 84.5379C374.799 85.9376 373.92 88.1512 373.66 91.1785H390.066C390.033 89.5509 389.708 88.0698 389.089 86.7352C388.471 85.4005 387.559 84.3426 386.355 83.5613C385.183 82.7801 383.718 82.3895 381.961 82.3895ZM437.283 125.7H418.191V49.7234H437.283V125.7ZM469.412 149.723C461.567 149.723 455.512 148.405 451.248 145.768C447.016 143.164 444.9 139.404 444.9 134.489C444.9 131.201 445.925 128.483 447.976 126.335C450.027 124.186 453.103 122.64 457.205 121.696C455.512 120.98 454.031 119.824 452.761 118.229C451.524 116.634 450.906 115.055 450.906 113.493C450.906 111.768 451.378 110.254 452.322 108.952C453.266 107.617 455.235 106.039 458.23 104.216C455.365 102.946 453.103 100.96 451.443 98.2586C449.815 95.5568 449.002 92.269 449.002 88.3953C449.002 84.3914 449.913 80.9734 451.736 78.1414C453.591 75.3094 456.277 73.1447 459.793 71.6473C463.341 70.1499 467.654 69.4012 472.732 69.4012C473.416 69.4012 474.457 69.4663 475.857 69.5965C477.257 69.6942 478.673 69.8244 480.105 69.9871C481.537 70.1173 482.644 70.2475 483.425 70.3777H502.712V79.6063L495.144 82.3895C495.665 83.3335 496.056 84.3589 496.316 85.4656C496.576 86.5724 496.707 87.7443 496.707 88.9813C496.707 94.9383 494.607 99.5607 490.408 102.848C486.241 106.136 480.007 107.78 471.707 107.78C469.656 107.78 468.028 107.65 466.824 107.389C466.596 107.813 466.417 108.236 466.287 108.659C466.189 109.05 466.14 109.424 466.14 109.782C466.14 110.531 466.58 111.133 467.459 111.589C468.37 112.012 469.461 112.305 470.73 112.468C472.032 112.63 473.269 112.712 474.441 112.712H483.621C489.838 112.712 494.493 114.014 497.586 116.618C500.678 119.222 502.224 123.145 502.224 128.386C502.224 135.124 499.343 140.365 493.582 144.108C487.852 147.852 479.796 149.723 469.412 149.723ZM470.339 137.809C472.651 137.809 474.978 137.598 477.322 137.175C479.666 136.784 481.635 136.133 483.23 135.221C484.825 134.31 485.623 133.106 485.623 131.608C485.623 130.469 485.151 129.606 484.207 129.02C483.263 128.467 482.042 128.093 480.545 127.897C479.047 127.702 477.468 127.604 475.808 127.604H468.386C467.019 127.604 465.766 127.816 464.627 128.239C463.52 128.695 462.641 129.297 461.99 130.046C461.339 130.794 461.013 131.641 461.013 132.585C461.013 134.147 461.86 135.401 463.552 136.345C465.245 137.321 467.507 137.809 470.339 137.809ZM472.927 96.9891C474.75 96.9891 476.15 96.2892 477.127 94.8895C478.136 93.4897 478.64 91.3901 478.64 88.5906C478.64 85.7261 478.168 83.5776 477.224 82.1453C476.28 80.713 474.848 79.9969 472.927 79.9969C470.942 79.9969 469.461 80.713 468.484 82.1453C467.507 83.5451 467.019 85.6609 467.019 88.493C467.019 91.325 467.507 93.4572 468.484 94.8895C469.461 96.2892 470.942 96.9891 472.927 96.9891ZM530.349 70.3777V125.7H511.257V70.3777H530.349ZM520.877 48.1121C523.611 48.1121 525.987 48.6818 528.005 49.8211C530.056 50.9604 531.082 53.2228 531.082 56.6082C531.082 59.896 530.056 62.1258 528.005 63.2977C525.987 64.437 523.611 65.0067 520.877 65.0067C518.077 65.0067 515.684 64.437 513.699 63.2977C511.746 62.1258 510.769 59.896 510.769 56.6082C510.769 53.2228 511.746 50.9604 513.699 49.8211C515.684 48.6818 518.077 48.1121 520.877 48.1121ZM597.488 70.3777V125.7H583.084L580.691 118.815H579.568C578.429 120.671 576.98 122.184 575.222 123.356C573.497 124.496 571.576 125.326 569.461 125.846C567.345 126.4 565.147 126.677 562.869 126.677C559.255 126.677 555.984 125.977 553.054 124.577C550.157 123.177 547.846 120.98 546.121 117.985C544.428 114.99 543.582 111.133 543.582 106.413V70.3777H562.673V100.602C562.673 104.183 563.178 106.917 564.187 108.805C565.229 110.661 566.921 111.589 569.265 111.589C571.674 111.589 573.53 110.938 574.832 109.636C576.166 108.333 577.094 106.413 577.615 103.874C578.136 101.335 578.396 98.2423 578.396 94.5965V70.3777H597.488ZM678.201 69.4012C684.516 69.4012 689.334 71.0125 692.654 74.2352C696.007 77.4578 697.683 82.6173 697.683 89.7137V125.7H678.591V95.6219C678.591 91.4227 678.022 88.5093 676.882 86.8817C675.776 85.2215 674.115 84.3914 671.902 84.3914C668.809 84.3914 666.661 85.7423 665.457 88.4442C664.285 91.146 663.699 94.9708 663.699 99.9188V125.7H644.558V95.6219C644.558 92.9526 644.314 90.8042 643.826 89.1766C643.37 87.5164 642.67 86.312 641.726 85.5633C640.782 84.782 639.594 84.3914 638.162 84.3914C635.981 84.3914 634.272 85.0587 633.035 86.3934C631.83 87.6955 630.984 89.616 630.496 92.1551C630.007 94.6942 629.763 97.8029 629.763 101.481V125.7H610.671V70.3777H625.076L627.859 77.2137H628.396C629.373 75.7163 630.626 74.3817 632.156 73.2098C633.718 72.0379 635.558 71.1102 637.673 70.4266C639.822 69.743 642.263 69.4012 644.998 69.4012C649.067 69.4012 652.42 70.0848 655.056 71.452C657.693 72.8192 659.841 74.7072 661.502 77.116H662.087C663.845 74.6421 666.108 72.7378 668.875 71.4031C671.642 70.0685 674.75 69.4012 678.201 69.4012ZM706.179 148.112C703.998 148.112 702.094 147.998 700.466 147.77C698.806 147.575 697.374 147.347 696.17 147.087V132.096C697.211 132.292 698.318 132.503 699.49 132.731C700.662 132.992 701.931 133.122 703.298 133.122C705.61 133.122 707.4 132.65 708.67 131.706C709.972 130.762 710.883 129.346 711.404 127.458C711.925 125.57 712.185 123.21 712.185 120.378V54.3133H731.57V118.718C731.57 125.879 730.496 131.608 728.347 135.905C726.199 140.202 723.22 143.311 719.412 145.231C715.603 147.152 711.192 148.112 706.179 148.112ZM793.728 104.02C793.728 107.894 792.752 111.572 790.798 115.055C788.845 118.506 785.802 121.305 781.668 123.454C777.566 125.602 772.26 126.677 765.75 126.677C762.494 126.677 759.63 126.53 757.156 126.237C754.714 125.944 752.436 125.472 750.32 124.821C748.204 124.138 746.007 123.259 743.728 122.184V104.997C747.602 106.95 751.508 108.447 755.447 109.489C759.386 110.498 762.95 111.003 766.14 111.003C768.061 111.003 769.623 110.775 770.828 110.319C772.065 109.863 772.976 109.245 773.562 108.464C774.148 107.65 774.441 106.722 774.441 105.68C774.441 104.444 774.002 103.402 773.123 102.555C772.276 101.677 770.909 100.765 769.021 99.8211C767.133 98.8771 764.643 97.7052 761.55 96.3055C758.914 95.0685 756.521 93.799 754.373 92.4969C752.257 91.1948 750.434 89.7137 748.904 88.0535C747.407 86.3608 746.251 84.3914 745.437 82.1453C744.623 79.8992 744.216 77.2462 744.216 74.1863C744.216 69.5965 745.339 65.7554 747.586 62.6629C749.864 59.5379 753.022 57.1942 757.058 55.6317C761.127 54.0692 765.815 53.2879 771.121 53.2879C775.776 53.2879 779.959 53.8087 783.67 54.8504C787.413 55.8921 790.766 57.0802 793.728 58.4149L787.82 73.3074C784.76 71.9077 781.749 70.8009 778.787 69.9871C775.824 69.1408 773.074 68.7176 770.535 68.7176C768.875 68.7176 767.507 68.9292 766.433 69.3524C765.392 69.743 764.61 70.2801 764.089 70.9637C763.601 71.6473 763.357 72.4285 763.357 73.3074C763.357 74.4142 763.78 75.407 764.627 76.2859C765.505 77.1649 766.954 78.1251 768.972 79.1668C771.023 80.1759 773.806 81.4943 777.322 83.1219C780.805 84.6844 783.767 86.3771 786.209 88.2C788.65 89.9904 790.505 92.1551 791.775 94.6942C793.077 97.2007 793.728 100.309 793.728 104.02ZM356.912 230.909C356.912 236.41 356.244 241.423 354.91 245.948C353.608 250.44 351.557 254.314 348.757 257.569C345.958 260.824 342.361 263.331 337.966 265.089C333.572 266.814 328.315 267.677 322.195 267.677C316.205 267.677 311.013 266.814 306.619 265.089C302.257 263.331 298.66 260.841 295.828 257.618C292.996 254.363 290.896 250.473 289.529 245.948C288.162 241.423 287.478 236.378 287.478 230.811C287.478 223.389 288.699 216.944 291.14 211.475C293.614 205.974 297.423 201.726 302.566 198.731C307.709 195.704 314.285 194.19 322.293 194.19C330.431 194.19 337.039 195.704 342.117 198.731C347.227 201.759 350.971 206.023 353.347 211.524C355.724 217.026 356.912 223.487 356.912 230.909ZM307.791 230.909C307.791 235.206 308.279 238.901 309.255 241.993C310.232 245.085 311.778 247.462 313.894 249.122C316.01 250.782 318.777 251.612 322.195 251.612C325.743 251.612 328.559 250.782 330.642 249.122C332.758 247.462 334.272 245.085 335.183 241.993C336.127 238.901 336.599 235.206 336.599 230.909C336.599 224.464 335.525 219.369 333.377 215.626C331.228 211.882 327.533 210.011 322.293 210.011C318.809 210.011 315.994 210.857 313.845 212.55C311.729 214.242 310.183 216.651 309.207 219.776C308.263 222.901 307.791 226.612 307.791 230.909ZM402.078 210.401C403.119 210.401 404.21 210.483 405.349 210.645C406.489 210.776 407.335 210.889 407.888 210.987L406.179 229.005C405.561 228.842 404.763 228.712 403.787 228.614C402.81 228.484 401.443 228.419 399.685 228.419C398.481 228.419 397.195 228.533 395.828 228.761C394.461 228.988 393.158 229.477 391.921 230.225C390.717 230.942 389.724 232.048 388.943 233.546C388.162 235.011 387.771 236.996 387.771 239.503V266.7H368.679V211.378H382.888L385.867 220.216H386.795C387.804 218.393 389.089 216.749 390.652 215.284C392.247 213.787 394.021 212.598 395.974 211.72C397.96 210.841 399.994 210.401 402.078 210.401ZM434.548 290.723C426.703 290.723 420.649 289.405 416.384 286.768C412.153 284.164 410.037 280.404 410.037 275.489C410.037 272.201 411.062 269.483 413.113 267.335C415.164 265.186 418.24 263.64 422.341 262.696C420.649 261.98 419.168 260.824 417.898 259.229C416.661 257.634 416.043 256.055 416.043 254.493C416.043 252.768 416.515 251.254 417.459 249.952C418.403 248.617 420.372 247.039 423.367 245.216C420.502 243.946 418.24 241.96 416.58 239.259C414.952 236.557 414.138 233.269 414.138 229.395C414.138 225.391 415.05 221.973 416.873 219.141C418.728 216.309 421.414 214.145 424.929 212.647C428.477 211.15 432.791 210.401 437.869 210.401C438.552 210.401 439.594 210.466 440.994 210.596C442.393 210.694 443.809 210.824 445.242 210.987C446.674 211.117 447.781 211.248 448.562 211.378H467.849V220.606L460.281 223.389C460.802 224.333 461.192 225.359 461.453 226.466C461.713 227.572 461.843 228.744 461.843 229.981C461.843 235.938 459.744 240.561 455.545 243.848C451.378 247.136 445.144 248.78 436.843 248.78C434.793 248.78 433.165 248.65 431.961 248.389C431.733 248.813 431.554 249.236 431.423 249.659C431.326 250.05 431.277 250.424 431.277 250.782C431.277 251.531 431.716 252.133 432.595 252.589C433.507 253.012 434.597 253.305 435.867 253.468C437.169 253.63 438.406 253.712 439.578 253.712H448.757C454.975 253.712 459.63 255.014 462.722 257.618C465.815 260.222 467.361 264.145 467.361 269.386C467.361 276.124 464.48 281.365 458.718 285.108C452.989 288.852 444.933 290.723 434.548 290.723ZM435.476 278.809C437.787 278.809 440.115 278.598 442.459 278.175C444.802 277.784 446.772 277.133 448.367 276.221C449.962 275.31 450.759 274.106 450.759 272.608C450.759 271.469 450.287 270.606 449.343 270.02C448.399 269.467 447.179 269.093 445.681 268.897C444.184 268.702 442.605 268.604 440.945 268.604H433.523C432.156 268.604 430.903 268.816 429.763 269.239C428.657 269.695 427.778 270.297 427.127 271.046C426.476 271.794 426.15 272.641 426.15 273.585C426.15 275.147 426.996 276.401 428.689 277.345C430.382 278.321 432.644 278.809 435.476 278.809ZM438.064 237.989C439.887 237.989 441.287 237.289 442.263 235.889C443.272 234.49 443.777 232.39 443.777 229.591C443.777 226.726 443.305 224.578 442.361 223.145C441.417 221.713 439.985 220.997 438.064 220.997C436.078 220.997 434.597 221.713 433.621 223.145C432.644 224.545 432.156 226.661 432.156 229.493C432.156 232.325 432.644 234.457 433.621 235.889C434.597 237.289 436.078 237.989 438.064 237.989ZM503.298 210.401C510.297 210.401 515.766 212.143 519.705 215.626C523.643 219.076 525.613 224.008 525.613 230.421V266.7H512.38L508.718 259.376H508.328C506.765 261.329 505.154 262.924 503.494 264.161C501.866 265.365 499.994 266.244 497.879 266.798C495.763 267.384 493.175 267.677 490.115 267.677C486.925 267.677 484.06 267.026 481.521 265.723C478.982 264.421 476.98 262.452 475.515 259.815C474.05 257.179 473.318 253.842 473.318 249.805C473.318 243.881 475.369 239.486 479.47 236.622C483.572 233.757 489.513 232.146 497.293 231.788L506.521 231.495V230.714C506.521 228.24 505.903 226.482 504.666 225.44C503.461 224.399 501.834 223.878 499.783 223.878C497.602 223.878 495.16 224.268 492.459 225.05C489.789 225.798 487.104 226.775 484.402 227.979L478.884 215.382C482.074 213.754 485.688 212.517 489.724 211.671C493.761 210.824 498.285 210.401 503.298 210.401ZM506.619 241.993L502.224 242.188C498.709 242.319 496.235 242.937 494.802 244.044C493.403 245.118 492.703 246.664 492.703 248.682C492.703 250.57 493.207 251.97 494.216 252.882C495.226 253.761 496.56 254.2 498.22 254.2C500.532 254.2 502.501 253.468 504.129 252.003C505.789 250.538 506.619 248.634 506.619 246.29V241.993ZM573.22 210.401C578.917 210.401 583.572 212.013 587.185 215.235C590.798 218.458 592.605 223.617 592.605 230.714V266.7H573.513V236.524C573.513 232.846 572.976 230.079 571.902 228.223C570.86 226.335 569.168 225.391 566.824 225.391C563.211 225.391 560.785 226.873 559.548 229.835C558.311 232.764 557.693 236.98 557.693 242.481V266.7H538.601V211.378H553.005L555.593 218.702H556.326C557.498 216.944 558.897 215.447 560.525 214.21C562.153 212.973 564.024 212.029 566.14 211.378C568.256 210.727 570.616 210.401 573.22 210.401ZM624.783 211.378V266.7H605.691V211.378H624.783ZM615.31 189.112C618.045 189.112 620.421 189.682 622.439 190.821C624.49 191.96 625.515 194.223 625.515 197.608C625.515 200.896 624.49 203.126 622.439 204.298C620.421 205.437 618.045 206.007 615.31 206.007C612.511 206.007 610.118 205.437 608.132 204.298C606.179 203.126 605.203 200.896 605.203 197.608C605.203 194.223 606.179 191.96 608.132 190.821C610.118 189.682 612.511 189.112 615.31 189.112ZM679.714 266.7H633.914V255.811L656.814 225.977H635.232V211.378H678.64V223.194L656.716 252.1H679.714V266.7ZM715.798 210.401C722.797 210.401 728.266 212.143 732.205 215.626C736.143 219.076 738.113 224.008 738.113 230.421V266.7H724.88L721.218 259.376H720.828C719.265 261.329 717.654 262.924 715.994 264.161C714.366 265.365 712.494 266.244 710.379 266.798C708.263 267.384 705.675 267.677 702.615 267.677C699.425 267.677 696.56 267.026 694.021 265.723C691.482 264.421 689.48 262.452 688.015 259.815C686.55 257.179 685.818 253.842 685.818 249.805C685.818 243.881 687.869 239.486 691.97 236.622C696.072 233.757 702.013 232.146 709.793 231.788L719.021 231.495V230.714C719.021 228.24 718.403 226.482 717.166 225.44C715.961 224.399 714.334 223.878 712.283 223.878C710.102 223.878 707.66 224.268 704.959 225.05C702.289 225.798 699.604 226.775 696.902 227.979L691.384 215.382C694.574 213.754 698.188 212.517 702.224 211.671C706.261 210.824 710.785 210.401 715.798 210.401ZM719.119 241.993L714.724 242.188C711.209 242.319 708.735 242.937 707.302 244.044C705.903 245.118 705.203 246.664 705.203 248.682C705.203 250.57 705.707 251.97 706.716 252.882C707.726 253.761 709.06 254.2 710.72 254.2C713.032 254.2 715.001 253.468 716.629 252.003C718.289 250.538 719.119 248.634 719.119 246.29V241.993ZM778.201 252.589C779.926 252.589 781.505 252.41 782.937 252.052C784.369 251.694 785.867 251.238 787.429 250.684V264.6C785.346 265.512 783.132 266.244 780.789 266.798C778.477 267.384 775.515 267.677 771.902 267.677C768.321 267.677 765.164 267.123 762.429 266.016C759.695 264.877 757.563 262.924 756.033 260.157C754.535 257.358 753.787 253.468 753.787 248.487V225.684H747.097V217.921L755.593 211.915L760.525 200.294H773.025V211.378H786.599V225.684H773.025V247.218C773.025 249.008 773.481 250.359 774.392 251.27C775.304 252.149 776.573 252.589 778.201 252.589ZM816.287 211.378V266.7H797.195V211.378H816.287ZM806.814 189.112C809.548 189.112 811.925 189.682 813.943 190.821C815.994 191.96 817.019 194.223 817.019 197.608C817.019 200.896 815.994 203.126 813.943 204.298C811.925 205.437 809.548 206.007 806.814 206.007C804.015 206.007 801.622 205.437 799.636 204.298C797.683 203.126 796.707 200.896 796.707 197.608C796.707 194.223 797.683 191.96 799.636 190.821C801.622 189.682 804.015 189.112 806.814 189.112ZM882.449 238.917C882.449 243.539 881.814 247.641 880.545 251.221C879.275 254.802 877.436 257.813 875.027 260.255C872.618 262.696 869.705 264.552 866.287 265.821C862.869 267.058 859.011 267.677 854.714 267.677C850.711 267.677 847.032 267.058 843.679 265.821C840.359 264.552 837.462 262.696 834.988 260.255C832.514 257.813 830.593 254.802 829.226 251.221C827.892 247.641 827.224 243.539 827.224 238.917C827.224 232.797 828.331 227.621 830.545 223.389C832.791 219.158 835.981 215.935 840.115 213.721C844.282 211.508 849.246 210.401 855.007 210.401C860.313 210.401 865.033 211.508 869.168 213.721C873.302 215.935 876.541 219.158 878.884 223.389C881.261 227.621 882.449 232.797 882.449 238.917ZM846.609 238.917C846.609 242.074 846.886 244.744 847.439 246.925C847.992 249.073 848.871 250.717 850.076 251.856C851.313 252.963 852.924 253.516 854.91 253.516C856.895 253.516 858.474 252.963 859.646 251.856C860.818 250.717 861.664 249.073 862.185 246.925C862.739 244.744 863.015 242.074 863.015 238.917C863.015 235.759 862.739 233.123 862.185 231.007C861.664 228.891 860.802 227.296 859.597 226.221C858.425 225.147 856.83 224.61 854.812 224.61C851.915 224.61 849.815 225.815 848.513 228.223C847.244 230.632 846.609 234.197 846.609 238.917ZM928.005 210.401C933.702 210.401 938.357 212.013 941.97 215.235C945.584 218.458 947.39 223.617 947.39 230.714V266.7H928.298V236.524C928.298 232.846 927.761 230.079 926.687 228.223C925.645 226.335 923.953 225.391 921.609 225.391C917.996 225.391 915.571 226.873 914.334 229.835C913.097 232.764 912.478 236.98 912.478 242.481V266.7H893.386V211.378H907.791L910.379 218.702H911.111C912.283 216.944 913.683 215.447 915.31 214.21C916.938 212.973 918.809 212.029 920.925 211.378C923.041 210.727 925.401 210.401 928.005 210.401Z" fill="#2D2926"/>
</g>
<defs>
<filter id="filter0_f_23_88" x="-7.59998" y="-2" width="98.8" height="322" filterUnits="userSpaceOnUse" color-interpolation-filters="sRGB">
<feFlood flood-opacity="0" result="BackgroundImageFix"/>
<feBlend mode="normal" in="SourceGraphic" in2="BackgroundImageFix" result="shape"/>
<feGaussianBlur stdDeviation="2" result="effect1_foregroundBlur_23_88"/>
</filter>
<filter id="filter1_f_23_88" x="83.2" y="-4" width="108" height="326" filterUnits="userSpaceOnUse" color-interpolation-filters="sRGB">
<feFlood flood-opacity="0" result="BackgroundImageFix"/>
<feBlend mode="normal" in="SourceGraphic" in2="BackgroundImageFix" result="shape"/>
<feGaussianBlur stdDeviation="2" result="effect1_foregroundBlur_23_88"/>
</filter>
<filter id="filter2_f_23_88" x="183.2" y="-2" width="98.8" height="322" filterUnits="userSpaceOnUse" color-interpolation-filters="sRGB">
<feFlood flood-opacity="0" result="BackgroundImageFix"/>
<feBlend mode="normal" in="SourceGraphic" in2="BackgroundImageFix" result="shape"/>
<feGaussianBlur stdDeviation="2" result="effect1_foregroundBlur_23_88"/>
</filter>
</defs>
</svg>
